# xmcd CD database file
#
# Track frame offsets:
#	150
#	15345
#	29206
#	47827
#	61010
#	78212
#	95187
#	107552
#	128584
#	151402
#	166042
#	184783
#	202512
#
# Disc length: 2932 seconds
#
# Revision: 0
# Processed by: cddbd v1.5.2PL0 Copyright (c) Steve Scherf et al.
# Submitted via: CDex 1.70beta2
#
DISCID=950b720d
DTITLE=Uncle Sean and the Shifty Drifters (10) - Cdn. - OVM - Cty - Drinkin' Ramblin' Honky Tonkin'
DYEAR=2010
DGENRE=Country
TTITLE0=Highway 69
TTITLE1=Old Tattoo
TTITLE2=Pour Myself A Friend
TTITLE3=Honky Tonk Angel
TTITLE4=Drinkin' Ramblin' Honky Tonkin'
TTITLE5=Mr Honky Tonk
TTITLE6=Should Be Holding You
TTITLE7=Never Got Wired Enough
TTITLE8=Country Boy Livin' Free
TTITLE9=#2 With A bullet
TTITLE10=See Right Through You
TTITLE11=Roll On Buddy
TTITLE12=Six Feet Deep
EXTD=YEAR: 2010
EXTT0=
EXTT1=
EXTT2=
EXTT3=
EXTT4=
EXTT5=
EXTT6=
EXTT7=
EXTT8=
EXTT9=
EXTT10=
EXTT11=
EXTT12=
PLAYORDER=
